<?xml version="1.0" encoding="UTF-8" standalone="no"?>
<!-- Created with Inkscape (http://www.inkscape.org/) -->

<svg
   width="123.66798mm"
   height="126.59681mm"
   viewBox="0 0 123.66798 126.59681"
   version="1.1"
   id="svg5"
   xml:space="preserve"
   xmlns:inkscape="http://www.inkscape.org/namespaces/inkscape"
   xmlns:sodipodi="http://sodipodi.sourceforge.net/DTD/sodipodi-0.dtd"
   xmlns="http://www.w3.org/2000/svg"
   xmlns:svg="http://www.w3.org/2000/svg"><sodipodi:namedview
     id="namedview7"
     pagecolor="#ffffff"
     bordercolor="#000000"
     borderopacity="0.25"
     inkscape:showpageshadow="2"
     inkscape:pageopacity="0.0"
     inkscape:pagecheckerboard="0"
     inkscape:deskcolor="#d1d1d1"
     inkscape:document-units="mm"
     showgrid="false"
     showguides="false"
     inkscape:zoom="1.1893044"
     inkscape:cx="510.38237"
     inkscape:cy="873.19949"
     inkscape:window-width="1368"
     inkscape:window-height="842"
     inkscape:window-x="-6"
     inkscape:window-y="-6"
     inkscape:window-maximized="1"
     inkscape:current-layer="layer1" /><defs
     id="defs2"><rect
       x="314.46954"
       y="191.15215"
       width="479.23126"
       height="259.98282"
       id="rect358" /><rect
       x="314.46954"
       y="191.15215"
       width="479.23126"
       height="259.98282"
       id="rect420" /></defs><g
     inkscape:label="Layer 1"
     inkscape:groupmode="layer"
     id="layer1"
     transform="translate(-44.602685,-19.460044)"><g
       id="g487"
       inkscape:export-filename="logo.svg"
       inkscape:export-xdpi="96"
       inkscape:export-ydpi="96"><rect
         style="fill:#ffffff;fill-opacity:1;stroke:none;stroke-width:0.395175;stroke-dasharray:none;stroke-opacity:1"
         id="rect16826"
         width="123.66798"
         height="126.59682"
         x="44.602684"
         y="19.460045" /><path
         style="fill:#000000;stroke-width:0.264583"
         d="m 65.970943,55.219283 c 0.57859,-0.42308 0.65787,-1.79322 0.13986,-2.41737 -0.88091,-1.06144 -2.49383,0.51079 -1.82559,1.77955 0.54072,1.02664 0.94486,1.17955 1.68573,0.63782 z"
         id="path475" /><path
         style="fill:#000000;stroke-width:0.264583"
         d="m 54.203453,81.272603 c 0,-0.90017 0.87906,-1.60887 2.51354,-2.02643 3.72901,-0.95265 6.48229,-3.96878 6.48229,-7.10114 0,-0.64776 -0.29765,-2.67369 -0.66146,-4.50207 -1.00367,-5.04422 -0.86601,-10.60238 0.37577,-15.17134 0.46631,-1.71572 2.07544,-2.37629 3.71864,-1.52655 0.57683,0.29828 0.85704,0.73022 1.15859,1.78593 1.15606,4.04734 1.51186,9.44211 0.85964,13.03416 -0.82912,4.56629 -1.03811,6.35662 -0.85515,7.32557 0.4687,2.48217 3.70607,5.42499 6.63744,6.03354 1.42086,0.29497 2.52487,1.16085 2.52487,1.98027 0,0.36514 -7.72907,0.66618 -17.13177,0.66727 -5.33634,5.2e-4 -5.6224,-0.0248 -5.6224,-0.49921 z"
         id="path473" /><path
         style="fill:#000000;stroke-width:0.264583"
         d="m 53.938873,87.079213 v -4.21825 l 11.50937,-0.0218 11.50938,-0.0218 v 4.06947 4.06948 l -1.78594,0.16867 c -0.98227,0.0928 -6.16149,0.16952 -11.50938,0.17055 l -9.72343,0.002 z"
         id="path471" /><path
         style="fill:#ff5555;stroke-width:0.264583"
         d="m 69.747723,111.21628 c -0.86845,-0.13156 -0.88594,-0.31924 -0.19831,-2.12844 0.82979,-2.18318 0.60216,-2.24406 -0.40038,-0.10708 -0.90726,1.93389 -0.9134,1.93996 -1.77643,1.75503 -0.47632,-0.10206 -0.91036,-0.22592 -0.96455,-0.27523 -0.0542,-0.0493 0.37735,-1.37486 0.95897,-2.94566 1.57,-4.24015 1.94053,-6.11349 0.46023,-2.32682 -0.79774,2.04065 -2.06696,4.41988 -2.57913,4.83473 -0.35774,0.28977 -3.37175,-0.14022 -3.37175,-0.48103 0,-0.10342 0.17859,-0.61547 0.39687,-1.13789 0.60707,-1.45294 0.44974,-1.51261 -0.28197,-0.10696 -0.35982,0.69123 -0.76677,1.25677 -0.90434,1.25677 -0.38119,0 -5.62253,-1.0321 -5.71599,-1.12557 -0.045,-0.045 0.37267,-1.32825 0.92824,-2.85159 1.60097,-4.38974 1.49337,-4.62592 -0.37818,-0.83004 l -1.73906,3.52717 -1.11373,-0.18396 c -0.61255,-0.10118 -1.16052,-0.22708 -1.21772,-0.27979 -0.0572,-0.0527 0.49816,-1.61668 1.23415,-3.4755 1.4858,-3.75257 2.97826,-8.297357 2.95723,-9.005237 -0.008,-0.25292 -0.47196,0.82289 -1.03209,2.3907 -1.15391,3.229747 -3.37929,7.885367 -4.31322,9.023487 -0.482107,0.58751 -0.758337,0.7192 -1.208692,0.57627 -0.326081,-0.1035 -0.505632,-0.31172 -0.406755,-0.4717 0.105471,-0.17065 0.05356,-0.21011 -0.12845,-0.0976 -0.796549,0.4923 -0.718999,-0.25297 0.142936,-1.37367 1.426851,-1.8552 3.402571,-6.191317 4.167871,-9.147217 0.37147,-1.43476 0.6754,-2.81487 0.6754,-3.06692 0,-0.4132 0.51167,-0.47542 5.20192,-0.6325 2.86105,-0.0958 7.98074,-0.17421 11.37708,-0.17421 h 6.17516 l -0.002,1.38906 c -0.005,3.49856 -0.87403,8.566267 -2.16534,12.633847 -0.96523,3.04049 -1.65767,4.34756 -2.50856,4.73525 -0.64336,0.29314 -0.92564,0.30587 -2.26925,0.10233 z"
         id="path248" /></g><g
       id="g481"
       transform="translate(-2.4535816)"><text
         xml:space="preserve"
         transform="matrix(0.46189566,0,0,0.46189566,-62.873739,-40.378171)"
         id="text356"
         style="font-style:normal;font-variant:normal;font-weight:normal;font-stretch:normal;font-size:85.3333px;font-family:'EB Garamond SC';-inkscape-font-specification:'EB Garamond SC';white-space:pre;shape-inside:url(#rect358);fill:#000000;stroke-width:13.0961"><tspan
           x="314.46875"
           y="263.77098"
           id="tspan17033"><tspan
             style="font-family:'EB Garamond';-inkscape-font-specification:'EB Garamond'"
             id="tspan17031">Paint
</tspan></tspan></text><text
         xml:space="preserve"
         transform="matrix(0.46189566,0,0,0.46189566,-62.085437,-62.40795)"
         id="text418"
         style="font-style:normal;font-variant:normal;font-weight:normal;font-stretch:normal;font-size:85.3333px;font-family:'EB Garamond SC';-inkscape-font-specification:'EB Garamond SC';white-space:pre;shape-inside:url(#rect420);fill:#ff5555;stroke-width:13.0961"><tspan
           x="314.46875"
           y="263.77098"
           id="tspan17037"><tspan
             style="font-family:'EB Garamond';-inkscape-font-specification:'EB Garamond'"
             id="tspan17035">
</tspan></tspan><tspan
           x="314.46875"
           y="370.43761"
           id="tspan17041"><tspan
             style="font-family:'EB Garamond';-inkscape-font-specification:'EB Garamond'"
             id="tspan17039"> Pros</tspan></tspan></text></g></g></svg>
